<svg width="807" height="284" viewBox="0 0 807 284" fill="none" xmlns="http://www.w3.org/2000/svg">
<path d="M244.067 148.56C244.547 148.08 244.907 147.66 245.147 147.3C247.187 145.14 249.167 142.8 251.087 140.28C253.127 137.76 255.047 135.12 256.847 132.36C258.887 128.76 260.447 125.22 261.527 121.74C262.727 118.26 263.447 114.9 263.687 111.66C263.927 108.66 263.867 105.78 263.507 103.02C263.147 100.26 262.487 97.68 261.527 95.28C259.847 91.08 257.447 87.54 254.327 84.66C251.207 81.78 247.307 79.86 242.627 78.9C240.227 78.42 237.647 78.24 234.887 78.36C232.247 78.48 229.367 79.02 226.247 79.98C221.807 81.66 217.967 84.06 214.727 87.18C211.607 90.3 209.027 93.9 206.987 97.98C206.267 99.66 205.787 101.52 205.547 103.56C205.427 105.48 205.547 107.34 205.907 109.14C206.387 110.82 207.167 112.26 208.247 113.46C209.447 114.66 210.947 115.26 212.747 115.26C214.427 115.02 216.047 114.42 217.607 113.46H217.067C215.867 113.7 214.787 113.52 213.827 112.92C212.987 112.2 212.447 111.3 212.207 110.22C211.967 109.14 212.207 108.18 212.927 107.34C213.647 106.38 214.607 105.78 215.807 105.54C216.887 105.3 217.907 105.54 218.867 106.26C219.827 106.98 220.427 107.88 220.667 108.96V109.32C220.907 111 220.487 112.44 219.407 113.64C218.327 114.72 216.947 115.56 215.267 116.16C213.467 116.76 211.787 117 210.227 116.88C208.787 116.76 207.467 116.4 206.267 115.8C204.827 114.84 203.747 113.88 203.027 112.92C201.227 110.64 200.147 108.12 199.787 105.36C199.427 102.48 199.247 100.02 199.247 97.98V87.18V84.66V69.9H202.847C203.327 71.82 203.987 73.5 204.827 74.94C205.787 76.38 207.467 77.1 209.867 77.1C211.187 77.1 212.807 76.74 214.727 76.02C216.647 75.3 218.927 74.46 221.567 73.5C223.247 72.78 225.107 72.12 227.147 71.52C229.307 70.92 231.587 70.5 233.987 70.26H234.347C234.467 70.14 234.707 70.08 235.067 70.08H235.427H235.967C236.207 69.96 236.567 69.9 237.047 69.9H237.407H238.307H238.667H239.927H240.827H241.007H241.907C245.387 70.02 248.927 70.56 252.527 71.52C256.127 72.36 259.487 73.8 262.607 75.84C265.967 77.88 268.787 80.4 271.067 83.4C271.667 84.24 272.207 85.08 272.687 85.92C273.167 86.64 273.647 87.48 274.127 88.44C274.727 89.52 275.267 90.6 275.747 91.68C276.227 92.76 276.647 93.9 277.007 95.1C278.687 100.02 279.407 105 279.167 110.04C278.927 114.96 277.607 120 275.207 125.16C272.807 130.44 269.327 135.42 264.767 140.1C263.927 141.06 263.087 142.08 262.247 143.16C261.407 144.12 260.507 145.08 259.547 146.04C257.027 148.92 254.267 151.92 251.267 155.04C248.267 158.16 245.027 161.52 241.547 165.12C235.667 171.12 231.287 176.16 228.407 180.24C225.647 184.2 223.907 187.38 223.187 189.78C222.467 192.06 222.587 193.68 223.547 194.64C224.627 195.6 226.007 196.08 227.687 196.08H260.627C260.987 196.08 261.887 195.9 263.327 195.54C264.887 195.06 266.147 193.92 267.107 192.12L272.507 177.18H277.187V194.64C277.187 196.32 277.487 197.58 278.087 198.42C278.687 199.14 279.347 199.68 280.067 200.04C280.907 200.52 281.927 200.76 283.127 200.76V203.64H277.187H268.367H262.967H224.987H199.967H196.547V203.28V196.08L230.927 161.52L244.067 148.56ZM317.15 240.54C326.99 236.1 336.77 231.9 346.49 227.94C356.33 223.98 366.11 220.74 375.83 218.22C385.55 215.82 395.27 214.38 404.99 213.9C414.71 213.54 424.43 214.68 434.15 217.32C441.47 219.12 447.41 221.22 451.97 223.62C456.65 226.02 459.65 227.7 460.97 228.66C461.21 228.66 461.45 228.78 461.69 229.02C460.25 227.34 459.17 225.42 458.45 223.26C457.73 221.22 457.43 219.18 457.55 217.14C457.79 215.22 458.51 213.42 459.71 211.74C460.91 210.18 462.71 208.92 465.11 207.96C465.59 207.72 466.55 207.36 467.99 206.88C469.31 203.16 473.87 201.72 481.67 202.56C479.87 202.44 478.19 202.5 476.63 202.74C475.31 202.98 473.99 203.4 472.67 204C471.35 204.48 470.39 205.38 469.79 206.7C472.07 206.46 474.95 206.82 478.43 207.78C482.03 208.74 486.35 210.96 491.39 214.44C497.87 218.88 503.15 223.92 507.23 229.56C506.51 228.12 505.73 226.62 504.89 225.06C504.05 223.62 503.03 222.06 501.83 220.38C500.51 218.46 499.01 216.6 497.33 214.8C495.77 213 494.03 211.26 492.11 209.58C490.91 208.38 489.29 207.06 487.25 205.62C486.77 205.26 486.29 204.9 485.81 204.54C485.45 204.18 484.97 203.88 484.37 203.64C481.13 201.72 478.49 200.52 476.45 200.04C474.53 199.56 473.33 199.26 472.85 199.14C467.45 198.78 463.49 199.44 460.97 201.12C458.57 202.8 456.89 204.78 455.93 207.06C455.21 208.86 454.85 210.72 454.85 212.64C454.85 214.56 454.97 216.36 455.21 218.04C455.57 219.96 456.05 221.82 456.65 223.62L410.21 144.06L385.01 185.64V191.58C385.01 193.38 385.43 194.82 386.27 195.9C387.23 196.98 388.43 197.82 389.87 198.42C391.31 199.02 392.93 199.44 394.73 199.68C396.65 199.92 398.51 200.1 400.31 200.22V204H385.01H366.83H351.53V200.4C353.33 200.28 355.13 200.1 356.93 199.86C358.85 199.62 360.53 199.2 361.97 198.6C363.41 198 364.55 197.16 365.39 196.08C366.35 194.88 366.83 193.38 366.83 191.58V140.28C364.67 140.4 362.75 140.16 361.07 139.56C359.39 138.96 357.95 138.36 356.75 137.76C355.43 137.04 354.23 136.2 353.15 135.24C351.59 133.8 350.21 132.18 349.01 130.38C347.81 128.58 346.79 126.78 345.95 124.98C345.11 123.06 344.45 121.26 343.97 119.58C343.49 117.78 343.19 116.22 343.07 114.9C344.27 117.66 345.83 120.78 347.75 124.26C349.79 127.74 352.25 130.8 355.13 133.44C358.01 135.84 361.25 137.28 364.85 137.76C365.21 137.88 365.75 137.94 366.47 137.94H366.83V81.6C366.83 79.8 366.35 78.36 365.39 77.28C364.55 76.2 363.41 75.36 361.97 74.76C360.53 74.16 358.85 73.74 356.93 73.5C355.13 73.26 353.33 73.02 351.53 72.78V69.18H366.83H385.01H388.25C386.81 64.5 385.01 59.82 382.85 55.14C380.93 56.1 378.65 56.52 376.01 56.4C373.73 56.28 370.91 55.62 367.55 54.42C364.19 53.1 360.29 50.58 355.85 46.86C351.89 43.62 348.53 40.14 345.77 36.42C342.89 32.58 340.67 28.92 339.11 25.44C337.55 21.84 336.65 18.66 336.41 15.9C336.05 13.02 336.53 10.86 337.85 9.41998C338.93 8.33999 340.13 7.73999 341.45 7.61999C342.41 7.37999 343.19 7.31999 343.79 7.44C344.15 7.44 344.63 7.49999 345.23 7.61999C345.71 7.61999 346.25 7.67999 346.85 7.79999C346.97 7.79999 347.03 7.85999 347.03 7.97998C348.59 8.33998 350.57 9.17999 352.97 10.5C355.49 11.7 358.37 13.62 361.61 16.26C364.85 18.78 368.45 22.2 372.41 26.52C376.37 30.84 380.63 36.3 385.19 42.9C385.19 42.9 385.25 42.96 385.37 43.08C385.37 43.08 385.43 43.14 385.55 43.26C385.67 43.14 385.73 43.02 385.73 42.9C385.73 42.78 385.79 42.6 385.91 42.36C386.15 41.04 385.91 39.42 385.19 37.5C384.59 35.46 383.99 33.72 383.39 32.28C383.15 32.04 382.97 31.8 382.85 31.56C381.05 29.52 379.67 27.48 378.71 25.44C377.75 23.4 377.09 21.84 376.73 20.76C376.49 20.28 376.37 19.92 376.37 19.68L375.83 18.06C375.83 18.06 375.89 18.18 376.01 18.42C376.01 18.3 375.95 18.24 375.83 18.24C375.95 18.36 376.13 18.66 376.37 19.14C376.13 18.66 376.01 18.42 376.01 18.42C376.13 18.78 376.55 19.5 377.27 20.58C377.99 21.66 379.13 22.92 380.69 24.36C382.25 25.8 384.29 27.42 386.81 29.22C389.45 30.9 392.69 32.64 396.53 34.44C396.65 34.56 398.03 35.22 400.67 36.42C403.31 37.62 407.03 39 411.83 40.56C416.63 42 422.45 43.38 429.29 44.7C436.13 46.02 443.93 46.86 452.69 47.22C454.01 47.34 455.33 47.4 456.65 47.4C457.97 47.4 459.29 47.4 460.61 47.4H460.79C469.07 47.28 478.61 46.32 489.41 44.52C500.21 42.72 511.73 40.44 523.97 37.68C536.21 34.8 548.87 31.68 561.95 28.32C575.03 24.84 587.99 21.48 600.83 18.24C613.67 14.88 626.03 11.88 637.91 9.24C649.79 6.59999 660.65 4.55999 670.49 3.11999C678.89 1.79999 687.29 1.13998 695.69 1.13998C704.09 1.01999 712.07 1.74 719.63 3.3C727.19 4.73999 734.09 7.07999 740.33 10.32C746.57 13.56 751.67 17.82 755.63 23.1C759.71 28.26 762.35 34.5 763.55 41.82C764.87 49.14 764.39 57.6 762.11 67.2C765.83 38.04 755.09 20.04 729.89 13.2C704.69 6.35998 665.33 9.89998 611.81 23.82C600.29 26.94 588.35 30.06 575.99 33.18C563.75 36.3 551.93 39.3 540.53 42.18C529.13 44.94 518.57 47.4 508.85 49.56C499.25 51.6 491.33 53.04 485.09 53.88C480.29 54.6 475.73 55.14 471.41 55.5C468.89 55.74 466.43 55.86 464.03 55.86C461.63 55.86 459.29 55.86 457.01 55.86C448.01 55.62 439.91 54.84 432.71 53.52C425.51 52.08 419.15 50.4 413.63 48.48C412.55 48.12 411.53 47.76 410.57 47.4C409.73 47.04 408.83 46.68 407.87 46.32C402.95 44.4 398.87 42.48 395.63 40.56C394.19 39.84 392.93 39.18 391.85 38.58C390.77 37.86 389.87 37.2 389.15 36.6L386.99 34.98C387.95 36.06 388.67 37.14 389.15 38.22C389.63 39.3 389.99 40.32 390.23 41.28C390.47 42.24 390.59 42.96 390.59 43.44C390.71 44.4 390.65 45.48 390.41 46.68C390.29 47.76 389.81 48.9 388.97 50.1C390.41 53.46 391.67 56.7 392.75 59.82C393.95 62.94 394.91 66.06 395.63 69.18H400.31V73.14C399.71 73.14 399.05 73.2 398.33 73.32C397.73 73.32 397.13 73.32 396.53 73.32C397.49 77.64 398.03 81.78 398.15 85.74C398.39 89.7 398.33 93.6 397.97 97.44C397.49 101.76 396.71 105.9 395.63 109.86C394.67 113.34 393.35 117 391.67 120.84C389.99 124.68 387.77 128.16 385.01 131.28V170.34C386.69 167.58 389.09 163.56 392.21 158.28C395.45 153 398.99 147.18 402.83 140.82C406.79 134.34 410.75 127.74 414.71 121.02C418.79 114.3 422.51 108.12 425.87 102.48C429.23 96.84 431.99 92.1 434.15 88.26C436.31 84.42 437.45 82.2 437.57 81.6C437.93 79.8 437.75 78.36 437.03 77.28C436.31 76.2 435.29 75.36 433.97 74.76C432.65 74.16 431.09 73.74 429.29 73.5C427.49 73.26 425.69 73.02 423.89 72.78V69.18H424.43H426.77H464.03H465.83V72.78H465.29C462.65 73.02 460.31 73.56 458.27 74.4C456.23 75.24 454.25 76.5 452.33 78.18C450.53 79.74 448.73 81.72 446.93 84.12C445.25 86.52 443.33 89.46 441.17 92.94L420.11 127.5L460.79 195.72C461.75 195.48 462.59 195.36 463.31 195.36C464.75 195.24 466.31 195.24 467.99 195.36C470.39 195.6 473.03 196.2 475.91 197.16C476.87 197.52 477.83 197.94 478.79 198.42C479.75 198.78 480.77 199.26 481.85 199.86C483.17 200.58 484.55 201.42 485.99 202.38C487.43 203.22 488.87 204.3 490.31 205.62H490.13H490.31C490.91 206.22 491.45 206.7 491.93 207.06C492.53 207.54 493.13 208.08 493.73 208.68C495.17 210 496.79 211.68 498.59 213.72C500.51 215.76 502.37 217.92 504.17 220.2C505.97 222.6 507.53 225.06 508.85 227.58C510.29 230.22 511.19 232.74 511.55 235.14C511.91 236.1 512.09 237 512.09 237.84L513.71 242.52C514.43 245.64 514.19 248.1 512.99 249.9C512.03 250.86 510.89 251.58 509.57 252.06C508.61 252.3 507.83 252.42 507.23 252.42C506.87 252.42 506.39 252.42 505.79 252.42C505.31 252.42 504.77 252.36 504.17 252.24H503.99C499.79 251.16 495.77 249.42 491.93 247.02C490.37 246.06 488.87 244.92 487.43 243.6C484.31 241.08 481.67 238.44 479.51 235.68C477.35 233.04 475.49 230.46 473.93 227.94C472.49 225.42 471.35 223.08 470.51 220.92C469.67 218.88 469.01 217.14 468.53 215.7C468.29 215.1 468.11 214.5 467.99 213.9C467.87 213.3 467.75 212.7 467.63 212.1V211.92C467.51 211.44 467.45 210.72 467.45 209.76C466.37 210.24 465.53 210.72 464.93 211.2C464.33 211.68 463.97 212.04 463.85 212.28C462.89 213.6 462.29 215.16 462.05 216.96C462.05 217.08 461.99 217.62 461.87 218.58C461.87 219.54 462.05 220.8 462.41 222.36C462.77 224.04 463.43 225.9 464.39 227.94C465.47 230.1 467.03 232.38 469.07 234.78C469.19 234.9 469.25 235.02 469.25 235.14C469.37 235.26 469.49 235.38 469.61 235.5C470.09 236.1 470.51 236.64 470.87 237.12C471.35 237.72 471.71 238.32 471.95 238.92C472.43 239.88 472.79 240.66 473.03 241.26C473.27 241.98 473.51 242.64 473.75 243.24L474.29 244.86C472.85 241.74 470.75 238.92 467.99 236.4C465.23 234 461.99 231.84 458.27 229.92C454.55 228 450.41 226.32 445.85 224.88C441.41 223.56 436.79 222.48 431.99 221.64C424.55 219.84 416.09 219.12 406.61 219.48C398.45 219.72 388.67 220.98 377.27 223.26C365.87 225.54 353.15 229.8 339.11 236.04C325.19 242.28 310.79 248.46 295.91 254.58C281.03 260.82 266.39 266.16 251.99 270.6C237.59 275.16 223.73 278.4 210.41 280.32C197.09 282.36 185.03 282.3 174.23 280.14C167.51 278.82 161.69 277.08 156.77 274.92C151.73 272.76 147.47 270.42 143.99 267.9C140.39 265.38 137.45 262.74 135.17 259.98C132.89 257.22 131.03 254.58 129.59 252.06H129.41C128.93 251.34 128.45 250.44 127.97 249.36C127.01 247.68 126.05 245.46 125.09 242.7C124.49 241.62 124.13 240.72 124.01 240C122.33 241.32 120.47 242.7 118.43 244.14C116.27 245.7 114.17 247.14 112.13 248.46C107.81 251.58 102.65 255.06 96.6501 258.9C90.5301 262.74 83.9901 266.34 77.0301 269.7C70.0701 273.06 62.8701 275.82 55.4301 277.98C47.9901 280.14 40.6701 281.16 33.4701 281.04C26.6301 280.92 20.9301 279.78 16.3701 277.62C11.6901 275.58 8.09009 273 5.57008 269.88C3.05008 266.88 1.61008 263.7 1.25007 260.34C0.77008 256.98 1.37008 253.98 3.05007 251.34C4.61007 248.82 7.19008 246.96 10.7901 245.76C14.2701 244.68 18.7701 244.8 24.2901 246.12C21.4101 245.52 18.8301 245.58 16.5501 246.3C14.1501 247.14 12.2301 248.34 10.7901 249.9C9.35008 251.46 8.57008 253.26 8.45009 255.3C8.21008 257.46 8.93007 259.62 10.6101 261.78C12.1701 263.94 14.7501 265.98 18.3501 267.9C21.8301 269.94 26.6301 271.62 32.7501 272.94C37.6701 273.9 42.8301 274.08 48.2301 273.48C53.6301 273 59.0901 271.92 64.6101 270.24C70.1301 268.68 75.5901 266.7 80.9901 264.3C86.2701 261.9 91.3101 259.44 96.1101 256.92C100.79 254.4 105.05 251.94 108.89 249.54C112.73 247.14 115.91 245.04 118.43 243.24C119.63 242.4 120.71 241.62 121.67 240.9C122.63 240.18 123.35 239.7 123.83 239.46C123.59 238.5 123.47 237.72 123.47 237.12C123.35 236.52 123.29 235.98 123.29 235.5C123.29 235.02 123.35 234.6 123.47 234.24C123.59 233.4 123.95 232.74 124.55 232.26C125.15 231.9 125.75 231.72 126.35 231.72C126.83 231.84 127.31 232.08 127.79 232.44C128.15 232.92 128.33 233.52 128.33 234.24C128.33 235.56 127.31 237.12 125.27 238.92L124.73 239.46C124.97 240.78 125.63 242.76 126.71 245.4C127.79 248.04 129.71 251.1 132.47 254.58C134.51 257.22 137.15 259.86 140.39 262.5C143.63 265.14 147.65 267.54 152.45 269.7C157.13 271.86 162.65 273.66 169.01 275.1C175.37 276.54 182.69 277.32 190.97 277.44C192.77 277.56 194.63 277.56 196.55 277.44C198.35 277.44 200.21 277.38 202.13 277.26C209.45 276.66 217.85 275.16 227.33 272.76C236.69 270.36 246.47 267.42 256.67 263.94C266.75 260.58 277.01 256.8 287.45 252.6C297.89 248.52 307.79 244.5 317.15 240.54ZM124.73 238.92C126.29 237.72 127.19 236.64 127.43 235.68C127.55 234.84 127.37 234.24 126.89 233.88C126.41 233.64 125.87 233.76 125.27 234.24C124.67 234.84 124.37 235.98 124.37 237.66V238.02C124.37 238.38 124.43 238.68 124.55 238.92H124.73ZM380.87 53.52C381.35 53.28 381.65 53.1 381.77 52.98C380.09 49.62 378.29 46.38 376.37 43.26C375.53 41.94 374.69 40.8 373.85 39.84C373.13 38.76 372.47 37.74 371.87 36.78C370.67 35.34 369.41 33.9 368.09 32.46C366.89 30.9 365.63 29.4 364.31 27.96C359.27 22.32 354.95 18.42 351.35 16.26C347.87 13.98 345.23 12.84 343.43 12.84C343.19 12.84 343.07 12.9 343.07 13.02C342.95 13.02 342.77 13.02 342.53 13.02C342.29 13.14 342.05 13.26 341.81 13.38C341.57 13.5 341.33 13.86 341.09 14.46C340.49 16.38 341.09 19.62 342.89 24.18C344.57 28.74 348.35 34.2 354.23 40.56C360.59 47.28 366.05 51.48 370.61 53.16C375.17 54.72 378.59 54.84 380.87 53.52ZM385.01 129.12C385.61 128.4 386.09 127.62 386.45 126.78C386.93 125.94 387.47 125.04 388.07 124.08C388.31 123.36 388.61 122.64 388.97 121.92C389.33 121.08 389.63 120.24 389.87 119.4C390.35 118.08 390.71 116.7 390.95 115.26C391.31 113.7 391.61 112.08 391.85 110.4C391.97 109.68 392.03 108.96 392.03 108.24C392.15 107.52 392.27 106.74 392.39 105.9C393.35 96.42 392.51 86.04 389.87 74.76C388.43 75.36 387.23 76.2 386.27 77.28C385.43 78.36 385.01 79.8 385.01 81.6V129.12ZM489.05 216.78C484.37 213.3 480.41 211.08 477.17 210.12C474.05 209.28 471.47 208.98 469.43 209.22C469.43 211.26 469.97 213.42 471.05 215.7C472.25 218.1 473.69 220.44 475.37 222.72C477.17 225.12 479.03 227.4 480.95 229.56C482.99 231.84 484.91 233.88 486.71 235.68C491.75 240.12 495.95 243.12 499.31 244.68C502.79 246.36 505.37 247.08 507.05 246.84C507.41 246.84 507.71 246.78 507.95 246.66C508.19 246.54 508.43 246.36 508.67 246.12C508.91 246 509.09 245.64 509.21 245.04C509.33 244.56 509.33 243.84 509.21 242.88C506.09 242.64 501.83 241.32 496.43 238.92C502.07 241.32 506.21 242.04 508.85 241.08C508.25 238.68 506.75 235.68 504.35 232.08C502.07 228.6 498.47 224.76 493.55 220.56C492.83 219.84 492.05 219.18 491.21 218.58C490.49 217.98 489.77 217.38 489.05 216.78ZM617.462 148.56C617.942 148.08 618.302 147.66 618.542 147.3C620.582 145.14 622.562 142.8 624.482 140.28C626.522 137.76 628.442 135.12 630.242 132.36C632.282 128.76 633.842 125.22 634.922 121.74C636.122 118.26 636.842 114.9 637.082 111.66C637.322 108.66 637.262 105.78 636.902 103.02C636.542 100.26 635.882 97.68 634.922 95.28C633.242 91.08 630.842 87.54 627.722 84.66C624.602 81.78 620.702 79.86 616.022 78.9C613.622 78.42 611.042 78.24 608.282 78.36C605.642 78.48 602.762 79.02 599.642 79.98C595.202 81.66 591.362 84.06 588.122 87.18C585.002 90.3 582.422 93.9 580.382 97.98C579.662 99.66 579.182 101.52 578.942 103.56C578.822 105.48 578.942 107.34 579.302 109.14C579.782 110.82 580.562 112.26 581.642 113.46C582.842 114.66 584.342 115.26 586.142 115.26C587.822 115.02 589.442 114.42 591.002 113.46H590.462C589.262 113.7 588.182 113.52 587.222 112.92C586.382 112.2 585.842 111.3 585.602 110.22C585.362 109.14 585.602 108.18 586.322 107.34C587.042 106.38 588.002 105.78 589.202 105.54C590.282 105.3 591.302 105.54 592.262 106.26C593.222 106.98 593.822 107.88 594.062 108.96V109.32C594.302 111 593.882 112.44 592.802 113.64C591.722 114.72 590.342 115.56 588.662 116.16C586.862 116.76 585.182 117 583.622 116.88C582.182 116.76 580.862 116.4 579.662 115.8C578.222 114.84 577.142 113.88 576.422 112.92C574.622 110.64 573.542 108.12 573.182 105.36C572.822 102.48 572.642 100.02 572.642 97.98V87.18V84.66V69.9H576.242C576.722 71.82 577.382 73.5 578.222 74.94C579.182 76.38 580.862 77.1 583.262 77.1C584.582 77.1 586.202 76.74 588.122 76.02C590.042 75.3 592.322 74.46 594.962 73.5C596.642 72.78 598.502 72.12 600.542 71.52C602.702 70.92 604.982 70.5 607.382 70.26H607.742C607.862 70.14 608.102 70.08 608.462 70.08H608.822H609.362C609.602 69.96 609.962 69.9 610.442 69.9H610.802H611.702H612.062H613.322H614.222H614.402H615.302C618.782 70.02 622.322 70.56 625.922 71.52C629.522 72.36 632.882 73.8 636.002 75.84C639.362 77.88 642.182 80.4 644.462 83.4C645.062 84.24 645.602 85.08 646.082 85.92C646.562 86.64 647.042 87.48 647.522 88.44C648.122 89.52 648.662 90.6 649.142 91.68C649.622 92.76 650.042 93.9 650.402 95.1C652.082 100.02 652.802 105 652.562 110.04C652.322 114.96 651.002 120 648.602 125.16C646.202 130.44 642.722 135.42 638.162 140.1C637.322 141.06 636.482 142.08 635.642 143.16C634.802 144.12 633.902 145.08 632.942 146.04C630.422 148.92 627.662 151.92 624.662 155.04C621.662 158.16 618.422 161.52 614.942 165.12C609.062 171.12 604.682 176.16 601.802 180.24C599.042 184.2 597.302 187.38 596.582 189.78C595.862 192.06 595.982 193.68 596.942 194.64C598.022 195.6 599.402 196.08 601.082 196.08H634.022C634.382 196.08 635.282 195.9 636.722 195.54C638.282 195.06 639.542 193.92 640.502 192.12L645.902 177.18H650.582V194.64C650.582 196.32 650.882 197.58 651.482 198.42C652.082 199.14 652.742 199.68 653.462 200.04C654.302 200.52 655.322 200.76 656.522 200.76V203.64H650.582H641.762H636.362H598.382H573.362H569.942V203.28V196.08L604.322 161.52L617.462 148.56ZM758.405 199.86C760.205 199.74 762.005 199.56 763.805 199.32C765.605 199.08 767.225 198.72 768.665 198.24C770.105 197.64 771.245 196.8 772.085 195.72C773.045 194.64 773.525 193.2 773.525 191.4V159.18H742.745H725.285H722.945H722.045H715.925C717.725 154.86 719.765 150 722.045 144.6C724.445 139.2 726.785 133.74 729.065 128.22C731.465 122.58 733.745 117.12 735.905 111.84C738.185 106.44 740.165 101.64 741.845 97.44C743.645 93.12 745.025 89.64 745.985 87C747.065 84.24 747.605 82.62 747.605 82.14C747.605 80.34 747.125 78.9 746.165 77.82C745.325 76.74 744.185 75.9 742.745 75.3C741.305 74.7 739.685 74.28 737.885 74.04C736.085 73.8 734.285 73.56 732.485 73.32V69.9H773.525V73.32C770.285 73.32 767.525 74.1 765.245 75.66C762.965 77.22 760.865 79.38 758.945 82.14C758.705 82.5 757.745 84.54 756.065 88.26C754.385 91.86 752.285 96.48 749.765 102.12C747.365 107.76 744.665 114.06 741.665 121.02C738.665 127.86 735.725 134.7 732.845 141.54C731.285 145.02 731.105 147.6 732.305 149.28C733.505 150.96 736.985 151.8 742.745 151.8H763.265C765.425 151.8 767.165 151.56 768.485 151.08C769.805 150.6 770.825 150 771.545 149.28C772.265 148.56 772.745 147.78 772.985 146.94C773.345 145.98 773.525 145.08 773.525 144.24V141.54V69.9H791.525H797.465V72.6C796.265 72.6 795.245 72.84 794.405 73.32C793.685 73.68 793.025 74.28 792.425 75.12C791.825 75.96 791.525 77.16 791.525 78.72V122.46V132.36V150.36C791.525 152.04 791.825 153.3 792.425 154.14C793.025 154.86 793.685 155.4 794.405 155.76C795.245 156.24 796.265 156.48 797.465 156.48V159.18H791.525V191.4C791.525 193.2 791.945 194.64 792.785 195.72C793.745 196.8 794.945 197.64 796.385 198.24C797.825 198.84 799.445 199.26 801.245 199.5C803.165 199.74 805.025 199.92 806.825 200.04V203.64H791.525H773.525H758.405V199.86Z" fill="#FBFBFB" fill-opacity="0.25"/>
</svg>
